<?xml version="1.0" encoding="utf-8"?>
<!-- Generator: Adobe Illustrator 26.1.0, SVG Export Plug-In . SVG Version: 6.00 Build 0)  -->
<svg version="1.1" id="Layer_1" xmlns="http://www.w3.org/2000/svg" xmlns:xlink="http://www.w3.org/1999/xlink" x="0px" y="0px"
	 viewBox="0 0 76.71 70.29" style="enable-background:new 0 0 76.71 70.29;" xml:space="preserve">
<style type="text/css">
	.st0{fill:#FF7925;}
</style>
<g>
	<g>
		<g>
			<path class="st0" d="M49.7,0c-0.38,0.47-0.63,0.78-0.76,0.95l-4.19,4.93c-1.46,1.76-2.96,3.94-4.53,6.58l-0.14,0.21l-0.33-0.29
				l0.02-0.53c0.09-3.13-0.43-5.29-1.55-6.5c-1.13-1.21-3.2-1.81-6.21-1.81c-1.23,0-2.48,0.05-3.75,0.16h-0.49L15.2,48.27l3.59,4.48
				H0l7.11-4.81l11.54-40.9l-2.91-0.04c-2.82,0-4.99,0.55-6.49,1.66c-1.51,1.11-2.77,3.06-3.77,5.86H4.42
				c1.21-3.2,2.67-5.44,4.37-6.7c1.72-1.26,4.13-1.89,7.26-1.89l2.46,0.04h0.45l0.57-2.01C18.17,3.78,16.87,3.7,15.6,3.7
				c-3.54,0-6.29,0.72-8.26,2.16C5.38,7.3,3.83,9.73,2.7,13.16H2.21C2.11,9.35,1.48,5.1,0.34,0.41L0.21,0H49.7z M38.77,9
				c-1.73-1.37-4-2.05-6.82-2.05c-0.63,0-1.3,0.04-2.01,0.12L18.46,48.38l4.36,7.73H1.8l-0.63-1.11h19.69l-3.73-6.29L29.21,5.88
				l2.23-0.04c2.66,0,4.48,0.22,5.47,0.64C37.91,6.9,38.53,7.75,38.77,9z M51.56,2.59C48.99,5,45.87,9,42.21,14.6l-0.28,0.41
				l-0.68-0.78l0.22-0.37c3.63-5.68,6.7-9.62,9.22-11.84l0.27-0.25L51.56,2.59z"/>
		</g>
		<g>
			<path class="st0" d="M29.8,14.18h19.32l-7.13,5.47l-5.01,17.76c0.6,0.11,1.32,0.19,2.15,0.25l4.96-17.59l5.73-4.44l0.61,0.74
				l-5.42,4.19l-4.84,17.14l1.32,0.12c2.06,0.19,4.07,0.29,6.04,0.29c2.85,0,5.34-0.14,7.47-0.41l5.33-18.91l-3.71-4.61h18.99
				l-7.22,5.47L56.33,62.48l3.72,4.44H41.14l6.99-4.81l4.92-17.43c-2.46,0.55-4.91,0.82-7.34,0.82c-2.3,0-4.65-0.12-7.05-0.37
				l-0.57-0.04l-4.91,17.39l4.58,7.81H16.52l-0.76-1.11h20.06l-3.86-6.13l5.33-18.91l1.17,0.08c3.54,0.27,6.12,0.41,7.73,0.41
				c2.63,0,5.02-0.36,7.17-1.07l0.42-1.48c-2.69,0.38-5.74,0.58-9.17,0.58c-1.84,0-3.17-0.04-4-0.12l-4.05-0.37
				c-0.16-0.02-0.46-0.05-0.92-0.08L29.9,62.48l4.01,4.44H14.92l6.87-4.81l5.07-17.96c-2.3,0-4.39,0.9-6.28,2.71l-0.75-0.41
				c2.16-2,4.59-3.11,7.31-3.33l0.43-1.52c-3.07,0-5.82,1.16-8.26,3.49l-0.5-0.41c2.73-3.95,6.02-6.27,9.87-6.99l5.22-18.5
				L29.8,14.18z M76.71,16.48l-5.34,4.07L59.54,62.48l4.62,7.81H42.83l-0.72-1.11h20.02l-3.75-6.21l12.08-42.83l5.84-4.52
				L76.71,16.48z"/>
		</g>
	</g>
</g>
<g>
</g>
<g>
</g>
<g>
</g>
<g>
</g>
<g>
</g>
<g>
</g>
<g>
</g>
<g>
</g>
<g>
</g>
<g>
</g>
<g>
</g>
<g>
</g>
<g>
</g>
<g>
</g>
<g>
</g>
</svg>
